<?xml version="1.0" encoding="UTF-8" standalone="no"?>
<svg width="26px" height="28px" viewBox="0 0 26 28" version="1.1" xmlns="http://www.w3.org/2000/svg" xmlns:xlink="http://www.w3.org/1999/xlink">
    <!-- Generator: sketchtool 39.1 (31720) - http://www.bohemiancoding.com/sketch -->
    <title>F3C69640-1A8A-426E-921C-265FF233AF3F</title>
    <desc>Created with sketchtool.</desc>
    <defs></defs>
    <g id="Atomic-Design---Elements" stroke="none" stroke-width="1" fill="none" fill-rule="evenodd">
        <g id="Login.Desktop" transform="translate(-388.000000, -370.000000)" fill="#181818">
            <g id="Group" transform="translate(388.000000, 370.000000)">
                <path d="M12.9997759,14 C14.9358793,14 16.5884483,13.3208889 17.9577069,11.9631111 C19.3274138,10.6053333 20.0121552,8.96688889 20.0121552,7.04755556 C20.0121552,5.12844444 19.3274138,3.49 17.9577069,2.132 C16.5882241,0.774222222 14.935431,0.0953333333 12.9997759,0.0953333333 C11.0641207,0.0953333333 9.41132759,0.774222222 8.04184483,2.132 C6.67213793,3.49 5.98739655,5.12844444 5.98739655,7.04755556 C5.98739655,8.96688889 6.67213793,10.6053333 8.04184483,11.9631111 C9.41155172,13.3208889 11.0641207,14 12.9997759,14 L12.9997759,14 Z" id="Shape"></path>
                <path d="M25.7915517,21.3415556 C25.7487414,20.732 25.663569,20.0742222 25.5358103,19.368 C25.4080517,18.6617778 25.2464483,18.0071111 25.0516724,17.4035556 C24.8568966,16.8002222 24.5951034,16.2117778 24.2662931,15.6384444 C23.9377069,15.0651111 23.5602586,14.5762222 23.1339483,14.1717778 C22.7076379,13.7673333 22.1874138,13.4446667 21.5728276,13.2033333 C20.9577931,12.962 20.2791034,12.8411111 19.5365345,12.8411111 C19.426931,12.8411111 19.1711897,12.9708889 18.7695345,13.2304444 C18.3678793,13.49 17.9144483,13.7797778 17.4092414,14.0995556 C16.9040345,14.4191111 16.2464138,14.7091111 15.4370517,14.9682222 C14.6274655,15.2277778 13.8149655,15.3575556 12.9991034,15.3575556 C12.1834655,15.3575556 11.3709655,15.2277778 10.5613793,14.9682222 C9.75201724,14.7091111 9.09439655,14.4191111 8.58918966,14.0995556 C8.08398276,13.7797778 7.63055172,13.49 7.22889655,13.2304444 C6.82701724,12.9708889 6.5715,12.8411111 6.46189655,12.8411111 C5.71932759,12.8411111 5.04063793,12.962 4.42582759,13.2033333 C3.81101724,13.4446667 3.29056897,13.7675556 2.86448276,14.1717778 C2.43839655,14.5762222 2.06094828,15.0651111 1.73236207,15.6384444 C1.40377586,16.2117778 1.14198276,16.8004444 0.947206897,17.4035556 C0.752431034,18.0071111 0.591051724,18.6617778 0.463293103,19.368 C0.335310345,20.0742222 0.250137931,20.7317778 0.207551724,21.3415556 C0.164965517,21.9513333 0.143672414,22.5757778 0.143672414,23.2155556 C0.143672414,24.6637778 0.588137931,25.8075556 1.47684483,26.6464444 C2.36555172,27.4851111 3.54653448,27.9044444 5.01956897,27.9044444 L20.9799828,27.9044444 C22.4530172,27.9044444 23.6337759,27.4851111 24.5227069,26.6464444 C25.4116379,25.8075556 25.8558793,24.664 25.8558793,23.2155556 C25.8558793,22.5757778 25.8345862,21.9511111 25.7915517,21.3415556 L25.7915517,21.3415556 Z" id="Shape"></path>
            </g>
        </g>
    </g>
</svg>