<?xml version="1.0" encoding="UTF-8" standalone="no"?>
<svg width="23px" height="31px" viewBox="0 0 23 31" version="1.1" xmlns="http://www.w3.org/2000/svg" xmlns:xlink="http://www.w3.org/1999/xlink">
    <!-- Generator: sketchtool 39.1 (31720) - http://www.bohemiancoding.com/sketch -->
    <title>23F5B1BF-A71E-4FEE-8E81-6A31B1A303A9</title>
    <desc>Created with sketchtool.</desc>
    <defs></defs>
    <g id="Atomic-Design---Elements" stroke="none" stroke-width="1" fill="none" fill-rule="evenodd">
        <g id="Login2.Desktop-HD" transform="translate(-684.000000, -445.000000)" fill="#181818">
            <path d="M704.738727,460.083083 L690.284317,460.083083 L690.284317,453.798525 C690.284317,452.410528 690.775347,451.22574 691.757407,450.24368 C692.739467,449.261861 693.924255,448.770831 695.312252,448.770831 C696.70025,448.770831 697.885037,449.261861 698.866856,450.24368 C699.848916,451.22574 700.339946,452.410528 700.339946,453.798525 C700.339946,454.138896 700.464331,454.433466 700.712859,454.682235 C700.96187,454.931004 701.256439,455.055389 701.596569,455.055389 L702.853914,455.055389 C703.194285,455.055389 703.488854,454.931004 703.737624,454.682235 C703.985911,454.433466 704.110777,454.138896 704.110777,453.798525 C704.110777,451.376159 703.249727,449.304528 701.528109,447.582669 C699.806491,445.860809 697.734619,445 695.312252,445 C692.889885,445 690.818014,445.860809 689.096154,447.582669 C687.374536,449.304287 686.513727,451.376159 686.513727,453.798525 L686.513727,460.083083 L685.885295,460.083083 C685.361722,460.083083 684.916493,460.266526 684.549848,460.632931 C684.183202,460.999335 684,461.444565 684,461.968378 L684,473.280871 C684,473.804685 684.183202,474.249914 684.549848,474.616319 C684.916493,474.982723 685.361722,475.166166 685.885295,475.166166 L704.738727,475.166166 C705.262782,475.166166 705.708011,474.982723 706.074416,474.616319 C706.44082,474.249914 706.624263,473.804685 706.624263,473.280871 L706.624263,461.968378 C706.624504,461.444565 706.441302,460.999576 706.074416,460.632931 C705.70777,460.266285 705.262782,460.083083 704.738727,460.083083 Z" id="Shape"></path>
        </g>
    </g>
</svg>